<svg height="512pt" viewBox="-46 0 512 512" width="512pt" xmlns="http://www.w3.org/2000/svg">
    <g fill="#725d57">
        <path d="m330 181h30v30h-30zm0 0"/>
        <path d="m330 105h30v46h-30zm0 0"/>
        <path d="m330 241h30v30h-30zm0 0"/>
        <path d="m330 301h30v30h-30zm0 0"/>
        <path d="m330 361h30v46h-30zm0 0"/>
    </g>
    <path d="m345 105h15v46h-15zm0 0" fill="#53433f"/>
    <path d="m345 181h15v30h-15zm0 0" fill="#53433f"/>
    <path d="m345 241h15v30h-15zm0 0" fill="#53433f"/>
    <path d="m345 301h15v30h-15zm0 0" fill="#53433f"/>
    <path d="m345 361h15v46h-15zm0 0" fill="#53433f"/>
    <path d="m293.832031 80.261719 18.316407 23.761719-158.785157 122.414062-18.316406-23.761719zm0 0" fill="#725d57"/>
    <path d="m153.363281 285.566406 158.765625 122.414063-18.320312 23.757812-158.761719-122.414062zm0 0"
          fill="#725d57"/>
    <path d="m90 331c-46.78125 0-90-30.929688-90-75 0-44.253906 43.441406-75 90-75 46.78125 0 90 30.929688 90 75 0 44.253906-43.441406 75-90 75zm0 0"
          fill="#57d9ad"/>
    <path d="m90 181v150c46.558594 0 90-30.746094 90-75 0-44.070312-43.21875-75-90-75zm0 0" fill="#26bfa6"/>
    <path d="m345 120c-44.902344 0-75-29.308594-75-60 0-31.007812 30.539062-60 75-60 44.902344 0 75 29.308594 75 60 0 31.007812-30.539062 60-75 60zm0 0"
          fill="#ff637b"/>
    <path d="m345 512c-44.902344 0-75-29.308594-75-60 0-31.007812 30.539062-60 75-60 44.902344 0 75 29.308594 75 60 0 31.007812-30.539062 60-75 60zm0 0"
          fill="#ff637b"/>
    <path d="m345 0v120c44.460938 0 75-28.992188 75-60 0-30.691406-30.097656-60-75-60zm0 0" fill="#e63950"/>
    <path d="m345 392v120c44.460938 0 75-28.992188 75-60 0-30.691406-30.097656-60-75-60zm0 0" fill="#e63950"/>
</svg>
